<svg width="24" height="24" viewBox="0 0 24 24" fill="none" xmlns="http://www.w3.org/2000/svg">
<path d="M3.51456 12.2229C4.27582 11.7981 5.1673 11.6699 6.01742 11.8629M7.42314 7.33723C6.93769 6.6054 6.73649 5.72136 6.85742 4.85152M11.366 1.23438C10.7651 3.07496 10.8442 5.06998 11.5889 6.85723M20.3146 22.6287L8.86314 18.3601C8.52416 18.2404 8.22076 18.0373 7.98085 17.7696C7.74094 17.5019 7.57224 17.1781 7.49028 16.8281C7.40832 16.478 7.41574 16.113 7.51186 15.7666C7.60797 15.4202 7.78969 15.1036 8.04028 14.8458L15.2231 7.66295C15.4885 7.41426 15.8123 7.23658 16.1646 7.1464C16.5169 7.05621 16.8863 7.05644 17.2385 7.14705C17.5907 7.23766 17.9143 7.41573 18.1793 7.66474C18.4443 7.91375 18.6422 8.22565 18.7546 8.57152L23.006 20.0229C23.1241 20.3939 23.1363 20.7905 23.0412 21.1681C22.9461 21.5456 22.7476 21.8891 22.4678 22.1599C22.1881 22.4307 21.8384 22.6181 21.4579 22.7009C21.0775 22.7837 20.6815 22.7587 20.3146 22.6287ZM1.71456 6.48009C1.94189 6.48009 2.15991 6.38978 2.32066 6.22904C2.4814 6.06829 2.57171 5.85027 2.57171 5.62295C2.57171 5.39562 2.4814 5.1776 2.32066 5.01686C2.15991 4.85611 1.94189 4.7658 1.71456 4.7658C1.48724 4.7658 1.26922 4.85611 1.10847 5.01686C0.947728 5.1776 0.857422 5.39562 0.857422 5.62295C0.857422 5.85027 0.947728 6.06829 1.10847 6.22904C1.26922 6.38978 1.48724 6.48009 1.71456 6.48009Z" stroke="#008BD2" stroke-width="1.71429" stroke-linecap="round" stroke-linejoin="round"/>
</svg>
