<svg width="54" height="54" viewBox="0 0 54 54" fill="none" xmlns="http://www.w3.org/2000/svg">
<rect width="54" height="54" rx="27" fill="white"/>
<path d="M18.9993 23.2636V23.2501C18.9992 21.9167 19.3941 20.6131 20.1342 19.5039C20.8742 18.3947 21.9261 17.5295 23.1573 17.0175C24.3885 16.5055 25.7438 16.3696 27.0521 16.6269C28.3604 16.8843 29.5632 17.5234 30.5088 18.4636C31.2527 18.0964 32.0837 17.942 32.9098 18.0175C33.736 18.093 34.5252 18.3954 35.1903 18.8913C35.8554 19.3872 36.3705 20.0573 36.6786 20.8276C36.9867 21.5979 37.0759 22.4383 36.9363 23.2561C37.1415 23.2751 37.3406 23.3363 37.5212 23.4357C37.7018 23.5352 37.8599 23.6708 37.9857 23.834C38.1116 23.9973 38.2024 24.1848 38.2526 24.3847C38.3027 24.5846 38.3111 24.7928 38.2773 24.9961C37.5993 29.0746 35.9223 31.6561 33.2493 32.7421V33.7501C33.2493 34.3468 33.0122 34.9191 32.5902 35.3411C32.1683 35.763 31.596 36.0001 30.9993 36.0001H24.9993C24.4025 36.0001 23.8302 35.763 23.4083 35.3411C22.9863 34.9191 22.7493 34.3468 22.7493 33.7501V32.7421C20.0763 31.6561 18.3993 29.0746 17.7213 24.9961C17.6885 24.7982 17.6959 24.5957 17.7428 24.4006C17.7897 24.2056 17.8753 24.0219 17.9944 23.8605C18.1136 23.6991 18.2639 23.5633 18.4365 23.461C18.6091 23.3587 18.8005 23.2921 18.9993 23.2651V23.2636ZM20.4993 23.2501H21.9993C21.9993 22.2555 22.3943 21.3017 23.0976 20.5984C23.8009 19.8952 24.7547 19.5001 25.7493 19.5001C26.7438 19.5001 27.6976 19.8952 28.4009 20.5984C29.1042 21.3017 29.4993 22.2555 29.4993 23.2501H30.9993C30.9993 21.8577 30.4461 20.5224 29.4616 19.5378C28.477 18.5532 27.1416 18.0001 25.7493 18.0001C24.3569 18.0001 23.0215 18.5532 22.0369 19.5378C21.0524 20.5224 20.4993 21.8577 20.4993 23.2501ZM23.4993 23.2501H27.9993C27.9993 22.6534 27.7622 22.0811 27.3402 21.6591C26.9183 21.2372 26.346 21.0001 25.7493 21.0001C25.1525 21.0001 24.5802 21.2372 24.1583 21.6591C23.7363 22.0811 23.4993 22.6534 23.4993 23.2501ZM33.7983 23.2501H35.4048C35.518 22.8068 35.5286 22.3435 35.4356 21.8955C35.3427 21.4475 35.1487 21.0267 34.8685 20.665C34.5883 20.3033 34.2292 20.0104 33.8186 19.8085C33.408 19.6066 32.9568 19.5012 32.4993 19.5001C32.1393 19.5001 31.7973 19.5631 31.4793 19.6786C31.7448 20.1046 31.9638 20.5636 32.1318 21.0451C32.4175 20.9742 32.7177 20.9888 32.9952 21.0871C33.2726 21.1853 33.5152 21.3628 33.6926 21.5977C33.8701 21.8325 33.9747 22.1143 33.9935 22.408C34.0123 22.7018 33.9444 22.9946 33.7983 23.2501ZM31.7493 33.0001H24.2493V33.7501C24.2493 33.949 24.3283 34.1398 24.4689 34.2804C24.6096 34.4211 24.8003 34.5001 24.9993 34.5001H30.9993C31.1982 34.5001 31.3889 34.4211 31.5296 34.2804C31.6702 34.1398 31.7493 33.949 31.7493 33.7501V33.0001ZM23.7213 31.5001H32.2773C34.6563 30.7351 36.1623 28.5721 36.7983 24.7501H19.2003C19.8363 28.5721 21.3423 30.7351 23.7213 31.5001Z" fill="#008BD2"/>
</svg>
