<svg width="54" height="54" viewBox="0 0 54 54" fill="none" xmlns="http://www.w3.org/2000/svg">
<rect width="54" height="54" rx="27" fill="white"/>
<path d="M26.5095 18.6649C26.6971 18.4554 26.9267 18.2878 27.1835 18.1731C27.4402 18.0583 27.7183 17.999 27.9995 17.999C28.2807 17.999 28.5587 18.0583 28.8155 18.1731C29.0722 18.2878 29.3019 18.4554 29.4895 18.6649L30.1895 19.4469C30.3895 19.6704 30.6373 19.846 30.9144 19.9608C31.1916 20.0756 31.491 20.1265 31.7905 20.1099L32.8405 20.0519C33.1213 20.0364 33.4023 20.0803 33.665 20.1808C33.9277 20.2813 34.1663 20.436 34.3651 20.635C34.564 20.8339 34.7186 21.0726 34.8189 21.3353C34.9193 21.5981 34.9631 21.8791 34.9475 22.1599L34.8895 23.2089C34.873 23.5082 34.924 23.8074 35.0388 24.0844C35.1536 24.3613 35.3291 24.6089 35.5525 24.8089L36.3345 25.5089C36.5441 25.6965 36.7119 25.9262 36.8267 26.183C36.9415 26.4399 37.0009 26.7181 37.0009 26.9994C37.0009 27.2807 36.9415 27.5589 36.8267 27.8157C36.7119 28.0726 36.5441 28.3023 36.3345 28.4899L35.5525 29.1899C35.329 29.39 35.1533 29.6377 35.0386 29.9149C34.9238 30.192 34.8729 30.4914 34.8895 30.7909L34.9475 31.8409C34.963 32.1217 34.919 32.4027 34.8186 32.6654C34.7181 32.9281 34.5633 33.1667 34.3644 33.3655C34.1655 33.5644 33.9268 33.719 33.664 33.8194C33.4013 33.9197 33.1203 33.9635 32.8395 33.9479L31.7905 33.8899C31.4911 33.8734 31.1919 33.9245 30.915 34.0392C30.638 34.154 30.3904 34.3295 30.1905 34.5529L29.4905 35.3349C29.3029 35.5446 29.0732 35.7123 28.8163 35.8271C28.5595 35.942 28.2813 36.0013 28 36.0013C27.7186 36.0013 27.4405 35.942 27.1836 35.8271C26.9268 35.7123 26.6971 35.5446 26.5095 35.3349L25.8095 34.5529C25.6094 34.3294 25.3616 34.1538 25.0845 34.039C24.8074 33.9242 24.508 33.8733 24.2085 33.8899L23.1585 33.9479C22.8776 33.9634 22.5967 33.9194 22.334 33.819C22.0713 33.7185 21.8327 33.5637 21.6338 33.3648C21.435 33.1659 21.2804 32.9272 21.18 32.6645C21.0797 32.4017 21.0359 32.1207 21.0515 31.8399L21.1095 30.7909C21.1259 30.4916 21.0749 30.1924 20.9602 29.9154C20.8454 29.6385 20.6698 29.3908 20.4465 29.1909L19.6645 28.4909C19.4548 28.3033 19.2871 28.0736 19.1722 27.8167C19.0574 27.5599 18.998 27.2817 18.998 27.0004C18.998 26.7191 19.0574 26.4409 19.1722 26.184C19.2871 25.9272 19.4548 25.6975 19.6645 25.5099L20.4465 24.8099C20.67 24.6098 20.8456 24.3621 20.9604 24.0849C21.0751 23.8078 21.1261 23.5084 21.1095 23.2089L21.0515 22.1589C21.0361 21.8781 21.0802 21.5973 21.1807 21.3347C21.2813 21.0721 21.436 20.8337 21.635 20.6349C21.8339 20.4362 22.0725 20.2816 22.3352 20.1814C22.5978 20.0811 22.8787 20.0373 23.1595 20.0529L24.2085 20.1109C24.5078 20.1274 24.807 20.0763 25.084 19.9616C25.3609 19.8468 25.6085 19.6713 25.8085 19.4479L26.5095 18.6649Z" stroke="#008BD2"/>
<path d="M25.5 24.5H25.51V24.51H25.5V24.5ZM30.5 29.5H30.51V29.51H30.5V29.5Z" stroke="#008BD2" stroke-width="1.5" stroke-linejoin="round"/>
<path d="M31 24L25 30" stroke="#008BD2" stroke-linecap="round" stroke-linejoin="round"/>
<path d="M26.5095 18.6649C26.6971 18.4554 26.9267 18.2878 27.1835 18.1731C27.4402 18.0583 27.7183 17.999 27.9995 17.999C28.2807 17.999 28.5587 18.0583 28.8155 18.1731C29.0722 18.2878 29.3019 18.4554 29.4895 18.6649L30.1895 19.4469C30.3895 19.6704 30.6373 19.846 30.9144 19.9608C31.1916 20.0756 31.491 20.1265 31.7905 20.1099L32.8405 20.0519C33.1213 20.0364 33.4023 20.0803 33.665 20.1808C33.9277 20.2813 34.1663 20.436 34.3651 20.635C34.564 20.8339 34.7186 21.0726 34.8189 21.3353C34.9193 21.5981 34.9631 21.8791 34.9475 22.1599L34.8895 23.2089C34.873 23.5082 34.924 23.8074 35.0388 24.0844C35.1536 24.3613 35.3291 24.6089 35.5525 24.8089L36.3345 25.5089C36.5441 25.6965 36.7119 25.9262 36.8267 26.183C36.9415 26.4399 37.0009 26.7181 37.0009 26.9994C37.0009 27.2807 36.9415 27.5589 36.8267 27.8157C36.7119 28.0726 36.5441 28.3023 36.3345 28.4899L35.5525 29.1899C35.329 29.39 35.1533 29.6377 35.0386 29.9149C34.9238 30.192 34.8729 30.4914 34.8895 30.7909L34.9475 31.8409C34.963 32.1217 34.919 32.4027 34.8186 32.6654C34.7181 32.9281 34.5633 33.1667 34.3644 33.3655C34.1655 33.5644 33.9268 33.719 33.664 33.8194C33.4013 33.9197 33.1203 33.9635 32.8395 33.9479L31.7905 33.8899C31.4911 33.8734 31.1919 33.9245 30.915 34.0392C30.638 34.154 30.3904 34.3295 30.1905 34.5529L29.4905 35.3349C29.3029 35.5446 29.0732 35.7123 28.8163 35.8271C28.5595 35.942 28.2813 36.0013 28 36.0013C27.7186 36.0013 27.4405 35.942 27.1836 35.8271C26.9268 35.7123 26.6971 35.5446 26.5095 35.3349L25.8095 34.5529C25.6094 34.3294 25.3616 34.1538 25.0845 34.039C24.8074 33.9242 24.508 33.8733 24.2085 33.8899L23.1585 33.9479C22.8776 33.9634 22.5967 33.9194 22.334 33.819C22.0713 33.7185 21.8327 33.5637 21.6338 33.3648C21.435 33.1659 21.2804 32.9272 21.18 32.6645C21.0797 32.4017 21.0359 32.1207 21.0515 31.8399L21.1095 30.7909C21.1259 30.4916 21.0749 30.1924 20.9602 29.9154C20.8454 29.6385 20.6698 29.3908 20.4465 29.1909L19.6645 28.4909C19.4548 28.3033 19.2871 28.0736 19.1722 27.8167C19.0574 27.5599 18.998 27.2817 18.998 27.0004C18.998 26.7191 19.0574 26.4409 19.1722 26.184C19.2871 25.9272 19.4548 25.6975 19.6645 25.5099L20.4465 24.8099C20.67 24.6098 20.8456 24.3621 20.9604 24.0849C21.0751 23.8078 21.1261 23.5084 21.1095 23.2089L21.0515 22.1589C21.0361 21.8781 21.0802 21.5973 21.1807 21.3347C21.2813 21.0721 21.436 20.8337 21.635 20.6349C21.8339 20.4362 22.0725 20.2816 22.3352 20.1814C22.5978 20.0811 22.8787 20.0373 23.1595 20.0529L24.2085 20.1109C24.5078 20.1274 24.807 20.0763 25.084 19.9616C25.3609 19.8468 25.6085 19.6713 25.8085 19.4479L26.5095 18.6649Z" stroke="#008BD2"/>
<path d="M25.5 24.5H25.51V24.51H25.5V24.5ZM30.5 29.5H30.51V29.51H30.5V29.5Z" stroke="#008BD2" stroke-width="1.5" stroke-linejoin="round"/>
<path d="M31 24L25 30" stroke="#008BD2" stroke-linecap="round" stroke-linejoin="round"/>
</svg>
