<svg width="44" height="45" viewBox="0 0 44 45" fill="none" xmlns="http://www.w3.org/2000/svg">
<rect y="0.5" width="44" height="44" rx="22" fill="#DCEAFD"/>
<path d="M14 30.5C13.45 30.5 12.9793 30.3043 12.588 29.913C12.1967 29.5217 12.0007 29.0507 12 28.5V16.5C12 15.95 12.196 15.4793 12.588 15.088C12.98 14.6967 13.4507 14.5007 14 14.5H30C30.55 14.5 31.021 14.696 31.413 15.088C31.805 15.48 32.0007 15.9507 32 16.5V28.5C32 29.05 31.8043 29.521 31.413 29.913C31.0217 30.305 30.5507 30.5007 30 30.5H14ZM22 23.5L14 18.5V28.5H30V18.5L22 23.5ZM22 21.5L30 16.5H14L22 21.5ZM14 18.5V16.5V28.5V18.5Z" fill="#008BD2"/>
</svg>
