<svg width="44" height="45" viewBox="0 0 44 45" fill="none" xmlns="http://www.w3.org/2000/svg">
<rect y="0.5" width="44" height="44" rx="22" fill="#DCEAFD"/>
<path d="M32.5 29.6253H31.375V19.5003C31.375 19.003 31.1775 18.5261 30.8258 18.1745C30.4742 17.8228 29.9973 17.6253 29.5 17.6253H26.125V13.5003C26.1249 13.1851 26.0453 12.875 25.8936 12.5987C25.742 12.3224 25.5231 12.0888 25.2573 11.9195C24.9914 11.7502 24.6872 11.6506 24.3726 11.63C24.0581 11.6094 23.7435 11.6684 23.4578 11.8015L13.7078 16.3522C13.3847 16.5036 13.1113 16.7438 12.9195 17.0447C12.7278 17.3457 12.6256 17.695 12.625 18.0519V29.6253H11.5C11.2016 29.6253 10.9155 29.7438 10.7045 29.9548C10.4935 30.1658 10.375 30.4519 10.375 30.7503C10.375 31.0487 10.4935 31.3348 10.7045 31.5458C10.9155 31.7568 11.2016 31.8753 11.5 31.8753H32.5C32.7984 31.8753 33.0845 31.7568 33.2955 31.5458C33.5065 31.3348 33.625 31.0487 33.625 30.7503C33.625 30.4519 33.5065 30.1658 33.2955 29.9548C33.0845 29.7438 32.7984 29.6253 32.5 29.6253ZM29.125 19.8753V29.6253H26.125V19.8753H29.125ZM14.875 18.29L23.875 14.0909V29.6253H14.875V18.29ZM22.375 21.0003V22.1253C22.375 22.4237 22.2565 22.7098 22.0455 22.9208C21.8345 23.1318 21.5484 23.2503 21.25 23.2503C20.9516 23.2503 20.6655 23.1318 20.4545 22.9208C20.2435 22.7098 20.125 22.4237 20.125 22.1253V21.0003C20.125 20.7019 20.2435 20.4158 20.4545 20.2048C20.6655 19.9938 20.9516 19.8753 21.25 19.8753C21.5484 19.8753 21.8345 19.9938 22.0455 20.2048C22.2565 20.4158 22.375 20.7019 22.375 21.0003ZM18.625 21.0003V22.1253C18.625 22.4237 18.5065 22.7098 18.2955 22.9208C18.0845 23.1318 17.7984 23.2503 17.5 23.2503C17.2016 23.2503 16.9155 23.1318 16.7045 22.9208C16.4935 22.7098 16.375 22.4237 16.375 22.1253V21.0003C16.375 20.7019 16.4935 20.4158 16.7045 20.2048C16.9155 19.9938 17.2016 19.8753 17.5 19.8753C17.7984 19.8753 18.0845 19.9938 18.2955 20.2048C18.5065 20.4158 18.625 20.7019 18.625 21.0003ZM18.625 25.8753V27.0003C18.625 27.2987 18.5065 27.5848 18.2955 27.7958C18.0845 28.0068 17.7984 28.1253 17.5 28.1253C17.2016 28.1253 16.9155 28.0068 16.7045 27.7958C16.4935 27.5848 16.375 27.2987 16.375 27.0003V25.8753C16.375 25.5769 16.4935 25.2908 16.7045 25.0798C16.9155 24.8688 17.2016 24.7503 17.5 24.7503C17.7984 24.7503 18.0845 24.8688 18.2955 25.0798C18.5065 25.2908 18.625 25.5769 18.625 25.8753ZM22.375 25.8753V27.0003C22.375 27.2987 22.2565 27.5848 22.0455 27.7958C21.8345 28.0068 21.5484 28.1253 21.25 28.1253C20.9516 28.1253 20.6655 28.0068 20.4545 27.7958C20.2435 27.5848 20.125 27.2987 20.125 27.0003V25.8753C20.125 25.5769 20.2435 25.2908 20.4545 25.0798C20.6655 24.8688 20.9516 24.7503 21.25 24.7503C21.5484 24.7503 21.8345 24.8688 22.0455 25.0798C22.2565 25.2908 22.375 25.5769 22.375 25.8753Z" fill="#008BD2"/>
</svg>
