<svg width="56" height="56" viewBox="0 0 56 56" fill="none" xmlns="http://www.w3.org/2000/svg">
<rect width="56" height="56" rx="8" fill="#1A2551"/>
<path d="M24.4799 31.98V30.98H26.1749C26.1303 31.1467 26.0953 31.3103 26.0699 31.471C26.0453 31.631 26.0303 31.801 26.0249 31.981L24.4799 31.98ZM24.3469 37C23.1449 37 22.1199 36.5863 21.2719 35.759C20.4239 34.9317 19.9999 33.922 19.9999 32.73V23.654H18.3459V19H30.3459V23.654H28.6729V27.391C28.5163 27.4997 28.3706 27.615 28.2359 27.737C28.1013 27.859 27.9733 27.9917 27.8519 28.135H24.4809V27.135H27.6729V23.654H20.9999V32.731C20.9999 33.6537 21.3253 34.4293 21.9759 35.058C22.6266 35.6867 23.4166 36.0007 24.3459 36C24.7819 36 25.1883 35.9237 25.5649 35.771C25.9409 35.6183 26.2769 35.4083 26.5729 35.141C26.6423 35.3077 26.7186 35.4607 26.8019 35.6C26.8853 35.7393 26.9796 35.8803 27.0849 36.023C26.7116 36.3283 26.2943 36.5673 25.8329 36.74C25.3716 36.9133 24.8759 37 24.3459 37M19.3459 22.654H29.3459V20H19.3459V22.654ZM32.1729 35.308C32.9503 35.308 33.6126 35.034 34.1599 34.486C34.7066 33.9393 34.9799 33.2773 34.9799 32.5C34.9799 31.7227 34.7066 31.0607 34.1599 30.514C33.6126 29.966 32.9503 29.692 32.1729 29.692C31.3963 29.692 30.7343 29.966 30.1869 30.514C29.6396 31.0607 29.3659 31.7227 29.3659 32.5C29.3659 33.2773 29.6393 33.9397 30.1859 34.487C30.7326 35.0343 31.3949 35.3077 32.1729 35.307M37.2729 38.289L34.4959 35.512C34.1553 35.7707 33.7889 35.968 33.3969 36.104C33.0056 36.24 32.5976 36.308 32.1729 36.308C31.1156 36.308 30.2166 35.9377 29.4759 35.197C28.7353 34.4563 28.3653 33.5573 28.3659 32.5C28.3666 31.4427 28.7366 30.5437 29.4759 29.803C30.2153 29.0623 31.1143 28.6923 32.1729 28.693C33.2316 28.6937 34.1306 29.0637 34.8699 29.803C35.6093 30.5423 35.9793 31.4413 35.9799 32.5C35.9799 32.9247 35.9123 33.3327 35.7769 33.724C35.6409 34.116 35.4436 34.4823 35.1849 34.823L37.9619 37.6L37.2729 38.289Z" fill="#F0F9FF"/>
</svg>
