<svg width="54" height="54" viewBox="0 0 54 54" fill="none" xmlns="http://www.w3.org/2000/svg">
<rect width="54" height="54" rx="27" fill="white"/>
<path d="M27.8802 29.5089H27.9327C29.0577 29.5389 29.9577 30.4539 29.9577 31.5789C29.9577 32.5389 29.3052 33.3414 28.4202 33.5814V34.4214C28.4202 34.7214 28.1802 34.9614 27.8802 34.9614C27.5802 34.9614 27.3402 34.7214 27.3402 34.4214V33.5814C26.8996 33.4628 26.5103 33.2024 26.2324 32.8405C25.9545 32.4786 25.8035 32.0352 25.8027 31.5789C25.8027 31.2789 26.0427 31.0389 26.3427 31.0389C26.6427 31.0389 26.8827 31.2789 26.8827 31.5789C26.8827 32.1339 27.3252 32.5764 27.8727 32.5764C28.4202 32.5764 28.8702 32.1264 28.8702 31.5789C28.8702 31.0314 28.4202 30.5814 27.8727 30.5814H27.8202C27.2807 30.5668 26.7681 30.3423 26.3914 29.9558C26.0147 29.5693 25.8035 29.0511 25.8027 28.5114C25.8027 27.5514 26.4552 26.7489 27.3402 26.5089V25.6689C27.3402 25.3689 27.5802 25.1289 27.8802 25.1289C28.1802 25.1289 28.4202 25.3689 28.4202 25.6689V26.5089C29.3052 26.7489 29.9577 27.5514 29.9577 28.5114C29.9577 28.8114 29.7177 29.0514 29.4177 29.0514C29.1177 29.0514 28.8777 28.8114 28.8777 28.5114C28.8777 27.9639 28.4277 27.5139 27.8802 27.5139C27.3327 27.5139 26.8827 27.9639 26.8827 28.5114C26.8827 29.0589 27.3327 29.5089 27.8802 29.5089Z" fill="#008BD2"/>
<path d="M23.899 18.8251L25.9885 21.2701L25.7628 21.5221C21.4623 22.4866 18.25 26.3274 18.25 30.9189C18.25 34.9554 21.526 38.2314 25.5625 38.2314H30.19C34.2265 38.2314 37.5025 34.9561 37.5025 30.9196C37.51 26.3274 34.2978 22.4866 29.9973 21.5221C30.0149 21.3636 29.9863 21.2034 29.9148 21.0609L31.6923 19.0261L31.807 18.8491C31.941 18.5569 31.9753 18.2287 31.9046 17.9151C31.8338 17.6014 31.6621 17.3197 31.4156 17.1132C31.1692 16.9068 30.8617 16.787 30.5406 16.7723C30.2194 16.7576 29.9023 16.8488 29.638 17.0319L29.0058 16.2819C28.8639 16.1232 28.6902 15.9961 28.496 15.909C28.3018 15.8219 28.0914 15.7767 27.8786 15.7764C27.6657 15.776 27.4552 15.8205 27.2607 15.907C27.0662 15.9934 26.8921 16.1199 26.7498 16.2781L26.0875 17.0176C25.8239 16.8307 25.5061 16.7359 25.1832 16.7478C24.8603 16.7596 24.5502 16.8776 24.3011 17.0833C24.052 17.2891 23.8776 17.5712 23.8049 17.8861C23.7322 18.2009 23.7653 18.531 23.899 18.8251ZM26.7483 19.8639L25.4763 18.3939C25.7718 18.536 26.1061 18.5763 26.427 18.5085C26.7479 18.4406 27.0373 18.2685 27.25 18.0189L27.85 17.2404L28.516 18.0294C28.7237 18.2709 29.0038 18.4388 29.3146 18.5081C29.6255 18.5775 29.9504 18.5445 30.241 18.4141L28.975 19.8639H26.7483ZM19.75 30.9189C19.75 26.4279 23.389 22.7889 27.88 22.7889C32.371 22.7889 36.01 26.4279 36.0025 30.9174V30.9189C36.0019 32.4603 35.3893 33.9384 34.2994 35.0283C33.2095 36.1182 31.7314 36.7308 30.19 36.7314H25.5625C24.0211 36.7308 22.543 36.1182 21.4531 35.0283C20.3632 33.9384 19.7506 32.4603 19.75 30.9189Z" fill="#008BD2"/>
</svg>
