<svg width="18" height="18" viewBox="0 0 18 18" fill="none" xmlns="http://www.w3.org/2000/svg">
<path d="M9 15.375C10.3575 15.375 11.6587 15.2408 12.8647 14.9948C14.3722 14.6873 15.1253 14.5343 15.8123 13.6508C16.5 12.7665 16.5 11.7518 16.5 9.72228V8.27778C16.5 6.24828 16.5 5.23278 15.8123 4.34928C15.1253 3.46578 14.3722 3.31203 12.8647 3.00528C11.5924 2.75025 10.2977 2.62286 9 2.62503C7.6425 2.62503 6.34125 2.75928 5.13525 3.00528C3.62775 3.31278 2.87475 3.46578 2.18775 4.34928C1.5 5.23353 1.5 6.24828 1.5 8.27778V9.72228C1.5 11.7518 1.5 12.7673 2.18775 13.6508C2.87475 14.5343 3.62775 14.688 5.13525 14.9948C6.34125 15.2408 7.6425 15.375 9 15.375Z" stroke="white" stroke-width="1.5" stroke-linecap="round" stroke-linejoin="round"/>
<path d="M11.9715 9.23484C11.8605 9.68934 11.268 10.0148 10.0837 10.6681C8.79525 11.3783 8.151 11.7331 7.62975 11.5958C7.45604 11.551 7.29375 11.47 7.1535 11.3581C6.75 11.0318 6.75 10.3546 6.75 9.00009C6.75 7.64559 6.75 6.96834 7.1535 6.64209C7.29 6.53184 7.4535 6.45009 7.62975 6.40434C8.151 6.26709 8.79525 6.62184 10.0837 7.33209C11.2687 7.98459 11.8605 8.31084 11.9715 8.76534C12.009 8.91984 12.009 9.08034 11.9715 9.23484Z" stroke="white" stroke-width="1.5" stroke-linecap="round" stroke-linejoin="round"/>
</svg>
