<svg width="56" height="56" viewBox="0 0 56 56" fill="none" xmlns="http://www.w3.org/2000/svg">
<rect width="56" height="56" rx="8" fill="#1A2551"/>
<path d="M38.1101 37.4605L18.3901 17.7305L17.1101 19.0005L23.6501 25.5405C22.7401 27.0305 22.0001 28.6505 22.0001 30.2305C22.0001 33.5405 24.6901 36.2305 28.0001 36.2305C28.8286 36.2342 29.6486 36.0633 30.4067 35.7291C31.1648 35.3948 31.844 34.9046 32.4001 34.2905L36.8401 38.7305L38.1101 37.4605ZM28.0001 34.2305C25.7801 34.2305 24.0001 32.4505 24.0001 30.2305C24.0001 29.5005 24.5001 28.2705 25.1401 27.0305L31.0001 32.8805C30.2601 33.7105 29.2001 34.2305 28.0001 34.2305ZM27.1401 23.9405L25.7101 22.5005C26.5701 21.3805 27.2501 20.6105 27.2501 20.6105L28.0001 19.7705L28.7501 20.6105C28.7501 20.6105 30.0301 22.0605 31.3201 23.9405C32.6101 25.8205 34.0001 28.0705 34.0001 30.2305C34.0001 30.4105 34.0001 30.5905 33.9701 30.7705L31.4601 28.2605C31.0001 27.2305 30.3701 26.0705 29.6801 25.0705C28.8401 23.8505 28.4401 23.4205 28.0001 22.9005C27.7301 23.2105 27.5001 23.5005 27.1401 23.9405Z" fill="#F0F9FF"/>
</svg>
