<svg width="20" height="20" viewBox="0 0 20 20" fill="none" xmlns="http://www.w3.org/2000/svg">
<path d="M6.51033 10.4801C6.31255 10.4801 6.11921 10.5387 5.95476 10.6486C5.79031 10.7585 5.66214 10.9147 5.58645 11.0974C5.51077 11.2801 5.49096 11.4812 5.52955 11.6752C5.56813 11.8691 5.66337 12.0473 5.80323 12.1872C5.94308 12.327 6.12126 12.4223 6.31524 12.4609C6.50922 12.4994 6.71029 12.4796 6.89302 12.4039C7.07574 12.3283 7.23192 12.2001 7.3418 12.0356C7.45168 11.8712 7.51033 11.6778 7.51033 11.4801C7.51033 11.2149 7.40498 10.9605 7.21744 10.773C7.0299 10.5854 6.77555 10.4801 6.51033 10.4801ZM6.51033 6.00007C6.31255 6.00007 6.11921 6.05872 5.95476 6.1686C5.79031 6.27848 5.66214 6.43466 5.58645 6.61738C5.51077 6.80011 5.49096 7.00118 5.52955 7.19516C5.56813 7.38914 5.66337 7.56732 5.80323 7.70717C5.94308 7.84703 6.12126 7.94227 6.31524 7.98085C6.50922 8.01944 6.71029 7.99964 6.89302 7.92395C7.07574 7.84826 7.23192 7.72009 7.3418 7.55564C7.45168 7.39119 7.51033 7.19785 7.51033 7.00007C7.51033 6.73485 7.40498 6.4805 7.21744 6.29296C7.0299 6.10543 6.77555 6.00007 6.51033 6.00007ZM10.0003 8.00007C9.73512 8.00007 9.48076 8.10543 9.29323 8.29296C9.10569 8.4805 9.00033 8.73485 9.00033 9.00007V10.0001C9.00033 10.2653 9.10569 10.5196 9.29323 10.7072C9.48076 10.8947 9.73512 11.0001 10.0003 11.0001C10.2655 11.0001 10.5199 10.8947 10.7074 10.7072C10.895 10.5196 11.0003 10.2653 11.0003 10.0001V9.00007C11.0003 8.73485 10.895 8.4805 10.7074 8.29296C10.5199 8.10543 10.2655 8.00007 10.0003 8.00007ZM18.5003 6.57007C18.1554 6.37158 17.7743 6.24372 17.3795 6.19393C16.9846 6.14414 16.5838 6.17342 16.2003 6.28007C15.8013 6.38696 15.4296 6.57789 15.1103 6.84007L3.51033 0.130068C3.35831 0.0423001 3.18587 -0.00390625 3.01033 -0.00390625C2.8348 -0.00390625 2.66235 0.0423001 2.51033 0.130068C2.35587 0.216894 2.22724 0.343205 2.13763 0.496072C2.04802 0.648939 2.00064 0.822872 2.00033 1.00007V14.1701C1.41019 14.3691 0.898504 14.7505 0.539056 15.2591C0.179607 15.7677 -0.00903294 16.3773 0.000332598 17.0001C5.45126e-05 17.782 0.30512 18.5332 0.850542 19.0936C1.39596 19.654 2.13863 19.9792 2.92033 20.0001H3.50033C6.77707 19.9924 9.99343 19.1178 12.8229 17.4651C15.6523 15.8124 17.994 13.4404 19.6103 10.5901C19.9836 9.90807 20.0776 9.10778 19.8724 8.35787C19.6672 7.60795 19.1789 6.96699 18.5103 6.57007H18.5003ZM4.00033 2.73007L13.8903 8.44007C12.7931 10.0773 11.3263 11.4335 9.60832 12.3994C7.89033 13.3652 5.9693 13.9135 4.00033 14.0001V2.73007ZM17.8703 9.61007C16.3858 12.2257 14.2177 14.3883 11.5983 15.8663C8.9789 17.3442 6.00681 18.0818 3.00033 18.0001C2.73512 18.0001 2.48076 17.8947 2.29323 17.7072C2.10569 17.5196 2.00033 17.2653 2.00033 17.0001C1.99955 16.8661 2.0257 16.7333 2.07724 16.6096C2.12877 16.4859 2.20464 16.3739 2.30033 16.2801C2.4882 16.099 2.7394 15.9985 3.00033 16.0001H3.51033C6.07805 15.999 8.59944 15.3162 10.8167 14.0213C13.034 12.7264 14.8677 10.8659 16.1303 8.63007C16.191 8.52038 16.274 8.42458 16.3739 8.34881C16.4737 8.27304 16.5883 8.21897 16.7103 8.19007C16.9625 8.12086 17.2317 8.15317 17.4603 8.28007C17.6898 8.40339 17.862 8.61137 17.9405 8.85976C18.0189 9.10815 17.9973 9.37734 17.8803 9.61007H17.8703Z" fill="#008BD2"/>
</svg>
