<svg width="24" height="24" viewBox="0 0 24 24" fill="none" xmlns="http://www.w3.org/2000/svg">
<g clip-path="url(#clip0_136_1994)">
<path d="M4.70569 0.00634766C2.12048 0.00634766 0.00463867 2.12214 0.00463867 4.7074V19.2956C0.00463867 21.8808 2.12043 23.9959 4.70569 23.9959H19.2939C21.8791 23.9959 23.9942 21.8808 23.9942 19.2956V4.7074C23.9942 2.12219 21.8791 0.00634766 19.2939 0.00634766H4.70569ZM5.88807 3.9651C7.12762 3.9651 7.89113 4.77884 7.9147 5.8485C7.9147 6.89454 7.12757 7.73116 5.86409 7.73116H5.84084C4.62488 7.73116 3.83895 6.89459 3.83895 5.8485C3.83895 4.77887 4.64869 3.9651 5.88807 3.9651ZM16.57 8.96454C18.9539 8.96454 20.741 10.5227 20.741 13.871V20.1218H17.1181V14.2901C17.1181 12.8247 16.5938 11.8249 15.2827 11.8249C14.2818 11.8249 13.6852 12.4987 13.4232 13.1497C13.3275 13.3826 13.304 13.7079 13.304 14.0337V20.1218H9.68115C9.68115 20.1218 9.72869 10.2431 9.68115 9.22019H13.3048V10.764C13.7862 10.0212 14.6474 8.96454 16.57 8.96454ZM4.05265 9.22098H7.67552V20.1218H4.05265V9.22098Z" fill="#223A83"/>
</g>
<defs>
<clipPath id="clip0_136_1994">
<rect width="24" height="24" fill="white"/>
</clipPath>
</defs>
</svg>
