<svg width="56" height="56" viewBox="0 0 56 56" fill="none" xmlns="http://www.w3.org/2000/svg">
<rect width="56" height="56" rx="8" fill="#1A2551"/>
<path d="M38.286 22.8584C37.341 22.8584 36.573 23.6244 36.573 24.5714C36.573 25.8554 36.145 26.2854 34.859 26.2854C33.914 26.2854 33.146 27.0514 33.146 27.9984C33.146 29.2834 32.718 29.7124 31.432 29.7124C31.093 29.7124 30.7615 29.8129 30.4796 30.0013C30.1978 30.1897 29.9781 30.4575 29.8484 30.7707C29.7187 31.084 29.6848 31.4286 29.751 31.7612C29.8172 32.0937 29.9806 32.3991 30.2204 32.6387C30.4602 32.8784 30.7657 33.0416 31.0982 33.1076C31.4308 33.1736 31.7754 33.1395 32.0886 33.0096C32.4018 32.8798 32.6694 32.6599 32.8576 32.3779C33.0458 32.0959 33.1462 31.7644 33.146 31.4254C33.146 30.1414 33.573 29.7124 34.859 29.7124C35.805 29.7124 36.573 28.9454 36.573 27.9984C36.573 26.7144 37 26.2854 38.286 26.2854C38.7333 26.2746 39.1586 26.0893 39.4711 25.7692C39.7837 25.449 39.9586 25.0193 39.9586 24.5719C39.9586 24.1245 39.7837 23.6948 39.4711 23.3746C39.1586 23.0545 38.7333 22.8692 38.286 22.8584ZM24.57 22.8594C23.625 22.8594 22.857 23.6264 22.857 24.5734C22.857 25.8574 22.429 26.2864 21.143 26.2864C20.804 26.2866 20.4728 26.3873 20.191 26.5757C19.9093 26.7642 19.6898 27.032 19.5602 27.3452C19.4306 27.6584 19.3968 28.003 19.4631 28.3354C19.5293 28.6678 19.6926 28.9731 19.9324 29.2127C20.1721 29.4523 20.4775 29.6155 20.81 29.6815C21.1424 29.7476 21.487 29.7136 21.8002 29.5838C22.1133 29.4541 22.3809 29.2344 22.5692 28.9525C22.7575 28.6707 22.858 28.3394 22.858 28.0004C22.858 26.7164 23.287 26.2874 24.571 26.2874C25.855 26.2874 26.285 26.7144 26.285 28.0004C26.3002 28.4448 26.4874 28.866 26.8072 29.1751C27.127 29.4841 27.5543 29.6568 27.999 29.6568C28.4437 29.6568 28.871 29.4841 29.1908 29.1751C29.5106 28.866 29.6978 28.4448 29.713 28.0004C29.713 27.0554 28.947 26.2874 27.997 26.2874C26.712 26.2874 26.283 25.8594 26.283 24.5734C26.283 23.6284 25.516 22.8594 24.57 22.8594ZM17.713 29.7154C17.4879 29.7155 17.2651 29.76 17.0572 29.8463C16.8493 29.9325 16.6604 30.0589 16.5013 30.2181C16.3422 30.3774 16.2161 30.5664 16.1301 30.7744C16.0441 30.9824 15.9999 31.2053 16 31.4304C16.0003 31.8848 16.181 32.3205 16.5024 32.6417C16.8238 32.963 17.2596 33.1434 17.714 33.1434C18.1682 33.1431 18.6038 32.9626 18.925 32.6414C19.2462 32.3202 19.4267 31.8846 19.427 31.4304C19.427 30.976 19.2466 30.5402 18.9253 30.2188C18.6041 29.8974 18.1684 29.7167 17.714 29.7164L17.713 29.7154Z" fill="#F0F9FF"/>
</svg>
