<svg width="54" height="54" viewBox="0 0 54 54" fill="none" xmlns="http://www.w3.org/2000/svg">
<rect width="54" height="54" rx="27" fill="white"/>
<path fill-rule="evenodd" clip-rule="evenodd" d="M26.7976 20.563C26.8888 20.4845 30.7026 17.248 33.2235 20.4365C34.6076 22.1865 34.4903 24.003 33.9769 25.7815L32.1702 31.428C31.6417 33.3915 31.265 33.998 30.3392 34.8505C29.7901 35.357 29.1704 34.4825 28.5182 33.562C27.9531 32.7645 27.3637 31.933 26.7747 31.935C26.1757 31.937 25.5766 32.77 25.0037 33.567C24.3432 34.486 23.7167 35.3575 23.1644 34.8505C22.0493 33.8265 21.5602 32.412 21.0487 30.1415C20.9502 29.7045 20.8008 29.18 20.6353 28.6015C19.9432 26.177 18.9798 22.804 20.3924 20.933C22.1373 18.622 24.3043 18.25 26.7742 20.5445L26.7976 20.563ZM25.5784 20.8C24.7241 20.16 23.9972 19.956 23.3922 20.008C22.6492 20.0715 21.8769 20.5395 21.1005 21.5685C20.5157 22.3425 20.4566 23.6495 20.7714 25.3575C20.9213 26.171 21.1404 26.9945 21.3609 27.777C21.4085 27.9464 21.4564 28.1149 21.5043 28.2825C21.6716 28.8675 21.8329 29.433 21.9388 29.9025C22.4068 31.9815 22.8142 33.0985 23.5526 33.8855C23.7052 33.7305 23.8977 33.4825 24.153 33.13L24.2768 32.958C24.538 32.5945 24.8474 32.163 25.1632 31.818C25.4987 31.4525 26.0528 30.937 26.7719 30.935C27.4943 30.9325 28.047 31.456 28.3757 31.8195C28.6869 32.164 28.9921 32.595 29.2497 32.959L29.3721 33.1315C29.6219 33.4815 29.8112 33.7295 29.961 33.884C30.2576 33.591 30.4501 33.3465 30.6164 33.0425C30.8319 32.65 31.0322 32.106 31.2902 31.1465L31.3044 31.0985L33.1066 25.467C33.3422 24.647 33.4618 23.8985 33.3999 23.195C33.3385 22.51 33.1006 21.8115 32.5295 21.0895C31.5835 19.8925 30.4212 19.8745 29.3239 20.245C28.7717 20.432 28.2762 20.71 27.9132 20.948C27.7766 21.037 27.662 21.1185 27.5731 21.185L29.3331 22.597C29.4311 22.6755 29.4965 22.7933 29.5149 22.9244C29.5333 23.0555 29.5032 23.1892 29.4312 23.296C29.3592 23.4029 29.2513 23.4742 29.1311 23.4943C29.011 23.5144 28.8884 23.4815 28.7904 23.403L26.304 21.408C26.2692 21.384 26.236 21.3574 26.2045 21.3285L25.6738 20.903C25.6375 20.874 25.6054 20.8393 25.5784 20.8Z" fill="#008BD2"/>
</svg>
