<svg width="232" height="163" viewBox="0 0 232 163" fill="none" xmlns="http://www.w3.org/2000/svg">
<path d="M1 21.6546C1 21.6546 17.2615 2.95138 31.5 1.15462C51.2353 -1.33579 55.1166 27.0745 75 27.6546C95.8924 28.2641 100.601 0.857365 121.5 1.15462C141.892 1.44466 146.107 27.4597 166.5 27.6546C187.231 27.8528 191.769 1.34642 212.5 1.15462C233.57 0.959675 238.438 28.2591 259.5 27.6546C279.551 27.0792 283.441 1.05303 303.5 1.15462C323.392 1.25536 327.132 28.6379 347 27.6546C353.622 27.3269 363.5 23.6546 363.5 23.6546" stroke="white"/>
<path d="M1 66.3353C1 66.3353 17.2615 47.632 31.5 45.8353C51.2353 43.3449 55.1166 71.7552 75 72.3353C95.8924 72.9448 100.601 45.538 121.5 45.8353C141.892 46.1253 146.107 72.1403 166.5 72.3353C187.231 72.5334 191.769 46.0271 212.5 45.8353C233.57 45.6403 238.438 72.9397 259.5 72.3353C279.551 71.7599 283.441 45.7337 303.5 45.8353C323.392 45.936 327.132 73.3186 347 72.3353C353.622 72.0075 363.5 68.3353 363.5 68.3353" stroke="white"/>
<path d="M1 111.016C1 111.016 17.2615 92.3127 31.5 90.5159C51.2353 88.0255 55.1166 116.436 75 117.016C95.8924 117.625 100.601 90.2187 121.5 90.5159C141.892 90.806 146.107 116.821 166.5 117.016C187.231 117.214 191.769 90.7077 212.5 90.5159C233.57 90.321 238.438 117.62 259.5 117.016C279.551 116.441 283.441 90.4144 303.5 90.5159C323.392 90.6167 327.132 117.999 347 117.016C353.622 116.688 363.5 113.016 363.5 113.016" stroke="white"/>
<path d="M1 155.697C1 155.697 17.2615 136.993 31.5 135.197C51.2353 132.706 55.1166 161.117 75 161.697C95.8924 162.306 100.601 134.899 121.5 135.197C141.892 135.487 146.107 161.502 166.5 161.697C187.231 161.895 191.769 135.388 212.5 135.197C233.57 135.002 238.438 162.301 259.5 161.697C279.551 161.121 283.441 135.095 303.5 135.197C323.392 135.297 327.132 162.68 347 161.697C353.622 161.369 363.5 157.697 363.5 157.697" stroke="white"/>
</svg>
