<svg width="24" height="24" viewBox="0 0 24 24" fill="none" xmlns="http://www.w3.org/2000/svg">
<path d="M8.25 8C8.25 7.80109 8.32902 7.61032 8.46967 7.46967C8.61032 7.32902 8.80109 7.25 9 7.25H16C16.1989 7.25 16.3897 7.32902 16.5303 7.46967C16.671 7.61032 16.75 7.80109 16.75 8C16.75 8.19891 16.671 8.38968 16.5303 8.53033C16.3897 8.67098 16.1989 8.75 16 8.75H9C8.80109 8.75 8.61032 8.67098 8.46967 8.53033C8.32902 8.38968 8.25 8.19891 8.25 8ZM9 10.25C8.80109 10.25 8.61032 10.329 8.46967 10.4697C8.32902 10.6103 8.25 10.8011 8.25 11C8.25 11.1989 8.32902 11.3897 8.46967 11.5303C8.61032 11.671 8.80109 11.75 9 11.75H14C14.1989 11.75 14.3897 11.671 14.5303 11.5303C14.671 11.3897 14.75 11.1989 14.75 11C14.75 10.8011 14.671 10.6103 14.5303 10.4697C14.3897 10.329 14.1989 10.25 14 10.25H9Z" fill="#008BD2"/>
<path fill-rule="evenodd" clip-rule="evenodd" d="M8.5 3.25C7.24022 3.25 6.03204 3.75045 5.14124 4.64124C4.25045 5.53204 3.75 6.74022 3.75 8V18C3.75 18.9946 4.14509 19.9484 4.84835 20.6517C5.55161 21.3549 6.50544 21.75 7.5 21.75H18.5C18.9641 21.75 19.4092 21.5656 19.7374 21.2374C20.0656 20.9092 20.25 20.4641 20.25 20V5C20.25 4.53587 20.0656 4.09075 19.7374 3.76256C19.4092 3.43437 18.9641 3.25 18.5 3.25H8.5ZM18.75 14.25V5C18.75 4.9337 18.7237 4.87011 18.6768 4.82322C18.6299 4.77634 18.5663 4.75 18.5 4.75H8.5C7.63805 4.75 6.8114 5.09241 6.2019 5.7019C5.59241 6.3114 5.25 7.13805 5.25 8V15C5.89843 14.5119 6.68838 14.2485 7.5 14.25H18.75ZM18.75 15.75H7.5C6.90326 15.75 6.33097 15.9871 5.90901 16.409C5.48705 16.831 5.25 17.4033 5.25 18C5.25 18.5967 5.48705 19.169 5.90901 19.591C6.33097 20.0129 6.90326 20.25 7.5 20.25H18.5C18.5663 20.25 18.6299 20.2237 18.6768 20.1768C18.7237 20.1299 18.75 20.0663 18.75 20V15.75Z" fill="#008BD2"/>
</svg>
