<svg width="56" height="56" viewBox="0 0 56 56" fill="none" xmlns="http://www.w3.org/2000/svg">
<rect width="56" height="56" rx="8" fill="#1A2551"/>
<path d="M22.7029 17.2324H27.4742C28.5671 17.2324 29.1855 17.391 29.9111 18.1024L29.9955 18.1864L35.5404 23.8217C36.3161 24.6171 36.4738 25.1687 36.4836 26.3721L36.4845 35.6241C36.4845 37.6714 35.4906 38.7257 33.4939 38.7668L33.3705 38.7681H22.7034C20.6754 38.7681 19.6314 37.7649 19.5906 35.7488L19.5894 35.6241V20.3863C19.5894 18.339 20.5922 17.2753 22.5804 17.2337L22.7029 17.2324ZM27.2535 18.8494H22.7929C21.7824 18.8494 21.2415 19.386 21.2076 20.3216L21.2059 20.4167V35.5941C21.2059 36.5661 21.7142 37.1147 22.6845 37.149L22.7831 37.1511H33.2899C34.3005 37.1511 34.8319 36.6334 34.8649 35.6897L34.8666 35.5941V26.574H29.1409C27.9315 26.574 27.2899 25.9864 27.2544 24.7924L27.2531 24.6853L27.2535 18.8494ZM32.5369 28.764C32.6976 28.9247 32.7879 29.1427 32.7879 29.37C32.7879 29.5973 32.6976 29.8153 32.5369 29.976L26.7144 35.7986C26.5536 35.9593 26.3356 36.0495 26.1084 36.0495C25.8811 36.0495 25.6631 35.9593 25.5024 35.7986L22.6798 32.976C22.5236 32.8143 22.4373 32.5978 22.4392 32.3731C22.4412 32.1483 22.5313 31.9334 22.6902 31.7744C22.8491 31.6155 23.0641 31.5254 23.2889 31.5234C23.5136 31.5215 23.7301 31.6079 23.8918 31.764L25.5024 33.3741L26.0805 33.9283L26.7144 33.3741L31.3245 28.764C31.4041 28.6844 31.4986 28.6212 31.6026 28.5781C31.7066 28.535 31.8181 28.5128 31.9307 28.5128C32.0433 28.5128 32.1548 28.535 32.2588 28.5781C32.3628 28.6212 32.4573 28.6844 32.5369 28.764ZM28.7698 19.161V24.4946C28.7698 24.873 28.9125 25.0376 29.2558 25.0556L29.3226 25.0573H34.5555L28.7698 19.161Z" fill="#F0F9FF"/>
</svg>
