<svg width="91" height="91" viewBox="0 0 91 91" fill="none" xmlns="http://www.w3.org/2000/svg">
<rect width="91" height="91" rx="45.5" fill="#ECF2F6"/>
<path d="M32.5001 42.9V41.6H31.2001V42.9H32.5001ZM42.9001 42.9V41.6H41.6001V42.9H42.9001ZM42.9001 53.3H41.6001V54.6H42.9001V53.3ZM61.1001 35.1H62.4001V34.5618L62.0205 34.1796L61.1001 35.1ZM53.3001 27.3L54.2205 26.3796L53.8383 26H53.3001V27.3ZM32.5001 44.2H35.1001V41.6H32.5001V44.2ZM33.8001 54.6V48.1H31.2001V54.6H33.8001ZM33.8001 48.1V42.9H31.2001V48.1H33.8001ZM35.1001 46.8H32.5001V49.4H35.1001V46.8ZM36.4001 45.5C36.4001 45.8448 36.2631 46.1754 36.0193 46.4192C35.7755 46.663 35.4449 46.8 35.1001 46.8V49.4C36.1344 49.4 37.1264 48.9891 37.8578 48.2577C38.5892 47.5263 39.0001 46.5343 39.0001 45.5H36.4001ZM35.1001 44.2C35.4449 44.2 35.7755 44.337 36.0193 44.5808C36.2631 44.8246 36.4001 45.1552 36.4001 45.5H39.0001C39.0001 44.4657 38.5892 43.4737 37.8578 42.7423C37.1264 42.0109 36.1344 41.6 35.1001 41.6V44.2ZM41.6001 42.9V53.3H44.2001V42.9H41.6001ZM42.9001 54.6H45.5001V52H42.9001V54.6ZM49.4001 50.7V45.5H46.8001V50.7H49.4001ZM45.5001 41.6H42.9001V44.2H45.5001V41.6ZM49.4001 45.5C49.4001 44.4657 48.9892 43.4737 48.2578 42.7423C47.5264 42.0109 46.5344 41.6 45.5001 41.6V44.2C45.8449 44.2 46.1755 44.337 46.4193 44.5808C46.6631 44.8246 46.8001 45.1552 46.8001 45.5H49.4001ZM45.5001 54.6C46.5344 54.6 47.5264 54.1891 48.2578 53.4577C48.9892 52.7263 49.4001 51.7343 49.4001 50.7H46.8001C46.8001 51.0448 46.6631 51.3754 46.4193 51.6192C46.1755 51.863 45.8449 52 45.5001 52V54.6ZM52.0001 41.6V54.6H54.6001V41.6H52.0001ZM53.3001 44.2H59.8001V41.6H53.3001V44.2ZM53.3001 49.4H57.2001V46.8H53.3001V49.4ZM31.2001 39V29.9H28.6001V39H31.2001ZM59.8001 35.1V39H62.4001V35.1H59.8001ZM32.5001 28.6H53.3001V26H32.5001V28.6ZM52.3797 28.2204L60.1797 36.0204L62.0205 34.1796L54.2205 26.3796L52.3797 28.2204ZM31.2001 29.9C31.2001 29.5552 31.3371 29.2246 31.5809 28.9808C31.8247 28.737 32.1553 28.6 32.5001 28.6V26C31.4658 26 30.4738 26.4109 29.7424 27.1423C29.011 27.8737 28.6001 28.8657 28.6001 29.9H31.2001ZM28.6001 57.2V61.1H31.2001V57.2H28.6001ZM32.5001 65H58.5001V62.4H32.5001V65ZM62.4001 61.1V57.2H59.8001V61.1H62.4001ZM58.5001 65C59.5344 65 60.5264 64.5891 61.2578 63.8577C61.9892 63.1263 62.4001 62.1343 62.4001 61.1H59.8001C59.8001 61.4448 59.6631 61.7754 59.4193 62.0192C59.1755 62.263 58.8449 62.4 58.5001 62.4V65ZM28.6001 61.1C28.6001 62.1343 29.011 63.1263 29.7424 63.8577C30.4738 64.5891 31.4658 65 32.5001 65V62.4C32.1553 62.4 31.8247 62.263 31.5809 62.0192C31.3371 61.7754 31.2001 61.4448 31.2001 61.1H28.6001Z" fill="#223A83"/>
</svg>
