<svg width="18" height="18" viewBox="0 0 18 18" fill="none" xmlns="http://www.w3.org/2000/svg">
<path d="M15.1501 7.575C15.1501 7.74 15.0151 7.87575 14.8501 7.8675C13.9685 7.8233 13.1076 7.58514 12.3286 7.17C12.1178 7.0575 11.8501 7.20375 11.8501 7.443V11.625C11.85 12.5022 11.5936 13.3603 11.1123 14.0937C10.631 14.8271 9.94585 15.4038 9.14109 15.753C8.33634 16.1021 7.44709 16.2084 6.58271 16.0588C5.71834 15.9092 4.91653 15.5103 4.27592 14.911C3.6353 14.3117 3.18381 13.5383 2.97697 12.6858C2.77014 11.8333 2.81698 10.9389 3.11173 10.1127C3.40649 9.28648 3.93631 8.56442 4.63602 8.03534C5.33573 7.50626 6.17483 7.19323 7.0501 7.13475C7.08921 7.13268 7.12834 7.1387 7.16502 7.15242C7.20171 7.16615 7.23517 7.18729 7.26332 7.21453C7.29147 7.24176 7.31371 7.27451 7.32864 7.31072C7.34357 7.34694 7.35087 7.38584 7.3501 7.425V9.525C7.3501 9.69 7.2151 9.82275 7.0516 9.84975C6.71311 9.90667 6.39796 10.0592 6.14329 10.2893C5.88862 10.5194 5.70506 10.8176 5.61424 11.1486C5.52343 11.4796 5.52915 11.8297 5.63073 12.1575C5.73231 12.4854 5.92551 12.7774 6.18756 12.9991C6.4496 13.2207 6.76957 13.3629 7.10974 13.4087C7.4499 13.4545 7.79608 13.4022 8.10746 13.2577C8.41883 13.1133 8.68243 12.8829 8.86716 12.5936C9.0519 12.3043 9.15007 11.9682 9.1501 11.625V2.175C9.1501 2.09544 9.18171 2.01913 9.23797 1.96287C9.29423 1.90661 9.37053 1.875 9.4501 1.875H11.5501C11.6303 1.87705 11.7069 1.90892 11.7648 1.96439C11.8228 2.01987 11.858 2.09496 11.8636 2.175C11.9337 2.94354 12.271 3.6632 12.8168 4.20883C13.3625 4.75446 14.0823 5.09155 14.8508 5.1615C15.0158 5.1765 15.1508 5.30925 15.1508 5.475L15.1501 7.575Z" stroke="white" stroke-linecap="round" stroke-linejoin="round"/>
</svg>
