<svg width="54" height="54" viewBox="0 0 54 54" fill="none" xmlns="http://www.w3.org/2000/svg">
<rect width="54" height="54" rx="27" fill="white"/>
<path d="M17.6725 19.4512C17.8688 18.7025 18.5512 18.25 19.2687 18.25C19.7113 18.25 20.1137 18.4162 20.42 18.6875C20.7577 18.4043 21.1843 18.249 21.625 18.249C22.0657 18.249 22.4923 18.4043 22.83 18.6875C23.1468 18.405 23.5567 18.2492 23.9813 18.25C24.6988 18.25 25.3813 18.7025 25.5775 19.4512C25.765 20.1662 26 21.3187 26 22.625C26 23.3544 25.8176 24.0723 25.4693 24.7133C25.1211 25.3542 24.6182 25.898 24.0063 26.295C23.6675 26.5162 23.5 26.8012 23.5 27.045V27.54C23.5 27.5683 23.5017 27.5958 23.505 27.6225C23.5475 27.9325 23.7013 29.0837 23.845 30.2775C23.9862 31.4487 24.125 32.7262 24.125 33.25C24.125 33.913 23.8616 34.5489 23.3928 35.0178C22.9239 35.4866 22.288 35.75 21.625 35.75C20.962 35.75 20.3261 35.4866 19.8572 35.0178C19.3884 34.5489 19.125 33.913 19.125 33.25C19.125 32.725 19.2638 31.45 19.405 30.2775C19.5487 29.0837 19.7025 27.9325 19.745 27.6225L19.75 27.54V27.045C19.75 26.8012 19.5825 26.5162 19.2438 26.295C18.6318 25.898 18.1289 25.3542 17.7807 24.7133C17.4324 24.0723 17.25 23.3544 17.25 22.625C17.25 21.3187 17.485 20.1662 17.6725 19.4512ZM23.5 23.25C23.5 23.4158 23.4342 23.5747 23.3169 23.6919C23.1997 23.8092 23.0408 23.875 22.875 23.875C22.7092 23.875 22.5503 23.8092 22.4331 23.6919C22.3158 23.5747 22.25 23.4158 22.25 23.25V20.125C22.25 19.9592 22.1842 19.8003 22.0669 19.6831C21.9497 19.5658 21.7908 19.5 21.625 19.5C21.4592 19.5 21.3003 19.5658 21.1831 19.6831C21.0658 19.8003 21 19.9592 21 20.125V23.25C21 23.4158 20.9342 23.5747 20.8169 23.6919C20.6997 23.8092 20.5408 23.875 20.375 23.875C20.2092 23.875 20.0503 23.8092 19.9331 23.6919C19.8158 23.5747 19.75 23.4158 19.75 23.25V19.9812C19.75 19.8536 19.6993 19.7312 19.609 19.641C19.5188 19.5507 19.3964 19.5 19.2687 19.5C19.0612 19.5 18.9188 19.6237 18.8813 19.7687C18.6349 20.7011 18.5068 21.6607 18.5 22.625C18.4999 23.1463 18.6303 23.6593 18.8792 24.1174C19.1281 24.5754 19.4876 24.9639 19.925 25.2475C20.4738 25.6037 21 26.23 21 27.045V27.54C21 27.6233 20.9946 27.7067 20.9837 27.79C20.9413 28.0975 20.7887 29.2412 20.6463 30.4275C20.5013 31.6337 20.375 32.82 20.375 33.25C20.375 33.5815 20.5067 33.8995 20.7411 34.1339C20.9755 34.3683 21.2935 34.5 21.625 34.5C21.9565 34.5 22.2745 34.3683 22.5089 34.1339C22.7433 33.8995 22.875 33.5815 22.875 33.25C22.875 32.82 22.75 31.6337 22.6038 30.4262C22.4612 29.2412 22.3088 28.0975 22.2663 27.7887C22.2567 27.7066 22.2513 27.624 22.25 27.5412V27.0462C22.25 26.2312 22.7763 25.605 23.325 25.2487C23.7626 24.965 24.1222 24.5763 24.3711 24.1181C24.62 23.6598 24.7503 23.1465 24.75 22.625C24.75 21.46 24.54 20.42 24.3688 19.7687C24.3313 19.625 24.1875 19.5 23.9813 19.5C23.8536 19.5 23.7312 19.5507 23.641 19.641C23.5507 19.7312 23.5 19.8536 23.5 19.9812V23.25ZM27.25 23.875C27.25 22.3832 27.8426 20.9524 28.8975 19.8975C29.9524 18.8426 31.3832 18.25 32.875 18.25C33.0408 18.25 33.1997 18.3158 33.3169 18.4331C33.4342 18.5503 33.5 18.7092 33.5 18.875V26.3412L33.5238 26.5625C33.6232 27.4954 33.7186 28.4288 33.81 29.3625C33.9638 30.9325 34.125 32.6925 34.125 33.25C34.125 33.913 33.8616 34.5489 33.3928 35.0178C32.9239 35.4866 32.288 35.75 31.625 35.75C30.962 35.75 30.3261 35.4866 29.8572 35.0178C29.3884 34.5489 29.125 33.913 29.125 33.25C29.125 32.6925 29.2863 30.9325 29.44 29.3625C29.5188 28.5662 29.5975 27.8037 29.6562 27.2387L29.6812 27H28.5C28.1685 27 27.8505 26.8683 27.6161 26.6339C27.3817 26.3995 27.25 26.0815 27.25 25.75V23.875ZM30.9963 26.4412L30.97 26.6937C30.8723 27.6239 30.7773 28.5543 30.685 29.485C30.5262 31.0937 30.375 32.7725 30.375 33.25C30.375 33.5815 30.5067 33.8995 30.7411 34.1339C30.9755 34.3683 31.2935 34.5 31.625 34.5C31.9565 34.5 32.2745 34.3683 32.5089 34.1339C32.7433 33.8995 32.875 33.5815 32.875 33.25C32.875 32.7712 32.7238 31.0937 32.565 29.485C32.4733 28.5542 32.3783 27.6238 32.28 26.6937L32.2537 26.4425L32.25 26.375V19.5437C31.2086 19.6941 30.2562 20.2147 29.5674 21.0102C28.8787 21.8057 28.4997 22.8228 28.5 23.875V25.75H30.375C30.4626 25.75 30.5493 25.7685 30.6293 25.8042C30.7094 25.8399 30.781 25.892 30.8396 25.9572C30.8982 26.0224 30.9424 26.0992 30.9694 26.1826C30.9964 26.266 31.0055 26.3541 30.9963 26.4412Z" fill="#008BD2"/>
</svg>
