<svg width="43" height="43" viewBox="0 0 43 43" fill="none" xmlns="http://www.w3.org/2000/svg">
<path d="M30.618 12.3125C28.9378 5.65058 25.4853 1.08337 21.5 1.08337C15.8629 1.08337 11.2916 10.2239 11.2916 21.5C11.2916 32.7762 15.8629 41.9167 21.5 41.9167C22.1996 41.914 22.8801 41.7779 23.5416 41.5084M28.021 24.9852L35.808 28.7827L32.0105 36.5696" stroke="#223A83" stroke-width="2" stroke-linecap="round" stroke-linejoin="round"/>
<path d="M35.7916 28.7888C32.1085 30.5957 27.0656 31.7084 21.5 31.7084C10.2239 31.7084 1.08331 27.1371 1.08331 21.5001C1.08331 15.863 10.2239 11.2917 21.5 11.2917C31.3776 11.2917 39.6157 14.7993 41.5083 19.4584" stroke="#223A83" stroke-width="2" stroke-linecap="round" stroke-linejoin="round"/>
</svg>
