<svg width="54" height="54" viewBox="0 0 54 54" fill="none" xmlns="http://www.w3.org/2000/svg">
<rect width="54" height="54" rx="27" fill="white"/>
<path d="M24.0669 26.1996C23.0945 26.1996 22.1618 25.7782 21.4742 25.028C20.7866 24.2779 20.4003 23.2605 20.4003 22.1996V18.9996C20.4003 18.7874 20.4775 18.584 20.615 18.4339C20.7526 18.2839 20.9391 18.1996 21.1336 18.1996H21.8669C22.0614 18.1996 22.2479 18.1153 22.3855 17.9653C22.523 17.8153 22.6003 17.6118 22.6003 17.3996C22.6003 17.1874 22.523 16.984 22.3855 16.8339C22.2479 16.6839 22.0614 16.5996 21.8669 16.5996H21.1336C20.5501 16.5996 19.9905 16.8525 19.578 17.3026C19.1654 17.7526 18.9336 18.3631 18.9336 18.9996V22.1996C18.9345 23.1034 19.1366 23.9934 19.5223 24.7933C19.9081 25.5931 20.466 26.2789 21.1483 26.7916C21.8044 27.4214 22.3364 28.1901 22.7121 29.0509C23.0877 29.9118 23.2992 30.8469 23.3336 31.7996C23.3336 33.2848 23.8744 34.7092 24.8371 35.7594C25.7998 36.8096 27.1055 37.3996 28.4669 37.3996C29.8284 37.3996 31.1341 36.8096 32.0967 35.7594C33.0594 34.7092 33.6003 33.2848 33.6003 31.7996V30.8876C34.2915 30.6929 34.894 30.2298 35.2947 29.5852C35.6954 28.9406 35.8668 28.1587 35.7769 27.386C35.6869 26.6134 35.3417 25.903 34.806 25.3882C34.2703 24.8733 33.5809 24.5892 32.8669 24.5892C32.153 24.5892 31.4635 24.8733 30.9278 25.3882C30.3921 25.903 30.0469 26.6134 29.957 27.386C29.867 28.1587 30.0385 28.9406 30.4392 29.5852C30.8399 30.2298 31.4423 30.6929 32.1336 30.8876V31.7996C32.1336 32.8605 31.7473 33.8779 31.0597 34.628C30.372 35.3782 29.4394 35.7996 28.4669 35.7996C27.4945 35.7996 26.5618 35.3782 25.8742 34.628C25.1866 33.8779 24.8003 32.8605 24.8003 31.7996C24.8365 30.8457 25.0503 29.9099 25.4285 29.049C25.8067 28.188 26.3414 27.42 27.0003 26.7916C27.6798 26.2771 28.2349 25.5906 28.618 24.7908C29.0012 23.9911 29.201 23.102 29.2003 22.1996V18.9996C29.2003 18.3631 28.9685 17.7526 28.5559 17.3026C28.1433 16.8525 27.5837 16.5996 27.0003 16.5996H26.2669C26.0724 16.5996 25.8859 16.6839 25.7484 16.8339C25.6109 16.984 25.5336 17.1874 25.5336 17.3996C25.5336 17.6118 25.6109 17.8153 25.7484 17.9653C25.8859 18.1153 26.0724 18.1996 26.2669 18.1996H27.0003C27.1948 18.1996 27.3813 18.2839 27.5188 18.4339C27.6563 18.584 27.7336 18.7874 27.7336 18.9996V22.1996C27.7336 22.7249 27.6388 23.245 27.4545 23.7303C27.2702 24.2156 27.0001 24.6566 26.6597 25.028C26.3192 25.3995 25.915 25.6941 25.4701 25.8951C25.0252 26.0961 24.5484 26.1996 24.0669 26.1996ZM32.8669 29.3996C32.4779 29.3996 32.1049 29.231 31.8298 28.931C31.5548 28.6309 31.4003 28.224 31.4003 27.7996C31.4003 27.3753 31.5548 26.9683 31.8298 26.6682C32.1049 26.3682 32.4779 26.1996 32.8669 26.1996C33.2559 26.1996 33.629 26.3682 33.904 26.6682C34.1791 26.9683 34.3336 27.3753 34.3336 27.7996C34.3336 28.224 34.1791 28.6309 33.904 28.931C33.629 29.231 33.2559 29.3996 32.8669 29.3996Z" fill="#008BD2"/>
</svg>
