<svg width="27" height="26" viewBox="0 0 27 26" fill="none" xmlns="http://www.w3.org/2000/svg">
<path d="M13.5 10.8334C15.8933 10.8334 17.8334 8.89331 17.8334 6.50008C17.8334 4.10685 15.8933 2.16675 13.5 2.16675C11.1068 2.16675 9.16669 4.10685 9.16669 6.50008C9.16669 8.89331 11.1068 10.8334 13.5 10.8334Z" stroke="#223A83" stroke-width="1.5"/>
<path d="M22.1645 19.2499C22.166 19.0723 22.1667 18.8917 22.1667 18.7083C22.1667 16.0162 18.2862 13.8333 13.5 13.8333C8.71384 13.8333 4.83334 16.0162 4.83334 18.7083C4.83334 21.4003 4.83334 23.5833 13.5 23.5833C15.9169 23.5833 17.66 23.4132 18.9167 23.1098" stroke="#223A83" stroke-width="1.5" stroke-linecap="round"/>
</svg>
