<svg width="44" height="45" viewBox="0 0 44 45" fill="none" xmlns="http://www.w3.org/2000/svg">
<rect y="0.5" width="44" height="44" rx="22" fill="#DCEAFD"/>
<path d="M29.4396 23.5004C29.2196 23.5004 28.9896 23.4304 28.7696 23.3804C28.3241 23.2823 27.8862 23.152 27.4596 22.9904C26.9957 22.8216 26.4858 22.8304 26.0279 23.015C25.5701 23.1996 25.1967 23.547 24.9796 23.9904L24.7596 24.4404C23.7858 23.8983 22.8908 23.2254 22.0996 22.4404C21.3146 21.6492 20.6416 20.7542 20.0996 19.7804L20.5196 19.5004C20.963 19.2833 21.3104 18.9099 21.495 18.452C21.6796 17.9942 21.6884 17.4843 21.5196 17.0204C21.3599 16.5931 21.2296 16.1554 21.1296 15.7104C21.0796 15.4904 21.0396 15.2604 21.0096 15.0304C20.8882 14.326 20.5192 13.6881 19.9692 13.2316C19.4192 12.7751 18.7243 12.53 18.0096 12.5404H15.0096C14.5786 12.5363 14.1519 12.6252 13.7583 12.8009C13.3648 12.9766 13.0137 13.2351 12.729 13.5586C12.4444 13.8822 12.2327 14.2634 12.1086 14.6761C11.9845 15.0888 11.9507 15.5234 12.0096 15.9504C12.5424 20.1397 14.4556 24.0322 17.4473 27.013C20.4389 29.9938 24.3383 31.8929 28.5296 32.4104H28.9096C29.647 32.4114 30.359 32.1409 30.9096 31.6504C31.226 31.3674 31.4787 31.0205 31.6511 30.6327C31.8235 30.2448 31.9116 29.8248 31.9096 29.4004V26.4004C31.8974 25.7057 31.6444 25.0369 31.194 24.508C30.7435 23.9791 30.1234 23.623 29.4396 23.5004ZM29.9396 29.5004C29.9394 29.6423 29.909 29.7827 29.8504 29.912C29.7918 30.0413 29.7063 30.1566 29.5996 30.2504C29.4882 30.3474 29.3576 30.4198 29.2163 30.4629C29.075 30.5059 28.9262 30.5187 28.7796 30.5004C25.0345 30.0202 21.5558 28.3068 18.8923 25.6306C16.2288 22.9545 14.532 19.4677 14.0696 15.7204C14.0543 15.5739 14.0685 15.4259 14.1114 15.285C14.1544 15.1441 14.2252 15.0133 14.3196 14.9004C14.4133 14.7937 14.5287 14.7082 14.658 14.6496C14.7873 14.5909 14.9276 14.5605 15.0696 14.5604H18.0696C18.3022 14.5552 18.5292 14.6312 18.7118 14.7754C18.8943 14.9196 19.0208 15.1229 19.0696 15.3504C19.1096 15.6237 19.1596 15.8937 19.2196 16.1604C19.3347 16.6876 19.4885 17.2057 19.6796 17.7104L18.2796 18.3604C18.1599 18.4153 18.0522 18.4933 17.9628 18.59C17.8733 18.6866 17.8038 18.8 17.7583 18.9236C17.7128 19.0471 17.6921 19.1785 17.6975 19.3101C17.7028 19.4417 17.7342 19.5709 17.7896 19.6904C19.2295 22.7726 21.7074 25.2504 24.7896 26.6904C25.0331 26.7904 25.3062 26.7904 25.5496 26.6904C25.6743 26.6457 25.7889 26.5768 25.8868 26.4875C25.9846 26.3983 26.0638 26.2905 26.1196 26.1704L26.7396 24.7704C27.2568 24.9545 27.7844 25.1081 28.3196 25.2304C28.5863 25.2904 28.8563 25.3404 29.1296 25.3804C29.357 25.4291 29.5604 25.5557 29.7045 25.7382C29.8487 25.9207 29.9248 26.1478 29.9196 26.3804L29.9396 29.5004Z" fill="#008BD2"/>
</svg>
