<svg width="325" height="353" viewBox="0 0 325 353" fill="none" xmlns="http://www.w3.org/2000/svg">
<path d="M308.966 35.4958C283.878 22.5739 257.198 13.0425 229.62 7.14946L58.0669 178.733C61.7157 180.206 64.9366 182.579 67.4325 185.631L76.3736 196.292C78.2018 198.522 80.6424 200.162 83.3915 201.008C84.6249 201.388 85.8997 201.615 87.1877 201.686C89.2658 201.779 91.3404 201.437 93.2796 200.682C95.2188 199.926 96.9802 198.773 98.4515 197.296L240.484 54.6359C242.482 56.4922 244.381 58.3987 246.229 60.3553L129.595 177.504C135.163 178.414 140.222 181.297 143.856 185.631L152.747 196.267C154.618 198.467 157.081 200.078 159.84 200.908C161.081 201.29 162.365 201.517 163.661 201.585C165.723 201.665 167.778 201.316 169.699 200.561C171.62 199.805 173.365 198.66 174.825 197.196L176.973 195.063L272.228 99.4382C273.402 102.122 274.5 104.832 275.499 107.616L205.919 177.504C211.473 178.412 216.517 181.297 220.13 185.631L229.046 196.267C230.894 198.487 233.339 200.124 236.089 200.983C237.322 201.363 238.597 201.59 239.885 201.661C241.963 201.754 244.038 201.412 245.977 200.656C247.916 199.901 249.677 198.748 251.149 197.271L282.992 165.287C281.568 181.919 270.929 212.071 270.929 212.071C265.604 225.173 258.475 237.459 249.75 248.57C238.507 263.457 225.085 276.55 209.94 287.402C195.405 297.714 179.408 305.773 162.487 311.308C126.782 299.619 95.6743 276.884 73.6163 246.357C51.5583 215.829 39.6813 179.075 39.6852 141.356V68.1819C77.9766 49.5566 119.967 39.8745 162.512 39.8607C170.005 39.8607 177.497 40.262 184.99 40.8641L220.454 5.31823C150.874 -7.56405 79.0048 3.01915 16.0339 35.4206L-7.10975e-05 43.799V141.356C-0.136522 188.673 15.1526 234.733 43.5314 272.501C71.2014 309.476 109.819 336.699 153.846 350.266L162.512 352.925L171.154 350.266C215.176 336.69 253.791 309.469 281.468 272.501C309.856 234.728 325.146 188.657 325 141.331V43.799L308.966 35.4958Z" fill="#008ACF"/>
</svg>
