<?xml version="1.0" encoding="UTF-8"?>
<svg id="Camada_2" data-name="Camada 2" xmlns="http://www.w3.org/2000/svg" xmlns:xlink="http://www.w3.org/1999/xlink" viewBox="0 0 276.23 70.65">
  <defs>
    <style>
      .cls-1 {
        fill: url(#Gradiente_sem_nome_16);
      }

      .cls-2 {
        fill: #575756;
      }

      .cls-3 {
        fill: #008ad1;
      }
    </style>
    <linearGradient id="Gradiente_sem_nome_16" data-name="Gradiente sem nome 16" x1="52.25" y1="5.41" x2="35.91" y2="5.41" gradientUnits="userSpaceOnUse">
      <stop offset="0" stop-color="#004a70"/>
      <stop offset=".67" stop-color="#008ad1"/>
    </linearGradient>
  </defs>
  <g id="Camada_1-2" data-name="Camada 1">
    <g>
      <g>
        <path class="cls-3" d="M35.33,0C15.85,0,0,15.85,0,35.33s15.85,35.33,35.33,35.33,35.33-15.85,35.33-35.33S54.8,0,35.33,0ZM35.33,62.31c-14.88,0-26.99-12.11-26.99-26.99s12.11-26.99,26.99-26.99c4.01,0,7.82.89,11.25,2.46l-29.58,29.58c.73.28,1.38.74,1.9,1.36l1.8,2.14c.38.45.86.77,1.41.94.25.08.5.12.77.14.84.04,1.68-.28,2.27-.88l28.53-28.53c.4.37.78.75,1.15,1.14l-23.45,23.45h0c.59.09,1.16.29,1.68.61.43.25.83.59,1.18,1l1.79,2.13c.38.45.87.77,1.42.94.24.08.5.12.77.14.84.04,1.67-.28,2.27-.88l.43-.43,19.14-19.14c.24.54.46,1.08.66,1.64-7.91,7.91-13.98,13.98-13.99,13.99.59.09,1.16.29,1.68.61.43.25.83.59,1.18,1l1.79,2.13c.38.45.87.77,1.42.94.25.08.5.12.77.14.84.04,1.67-.28,2.27-.88l6.4-6.4c-1.2,13.78-12.79,24.64-26.88,24.64Z"/>
        <path class="cls-1" d="M52.68,4.6C46.9,1.32,40.56-.15,34.32.02l-1.45,8.42c4.59-.41,9.32.34,13.71,2.37l6.1-6.21Z"/>
      </g>
      <g>
        <path class="cls-2" d="M214.17,46.07c-.21-.72-5.12-17.73-5.67-19.52-.46-1.46-1.84-5.89-8.06-5.89s-7.6,4.44-8.06,5.89c-.56,1.79-5.47,18.8-5.67,19.52-.47,1.63.47,3.34,2.1,3.81.28.08.57.12.85.12,1.34,0,2.57-.88,2.96-2.23.02-.07.73-2.54,1.65-5.71h12.33c.92,3.17,1.63,5.65,1.65,5.71.47,1.63,2.18,2.58,3.81,2.1,1.63-.47,2.58-2.18,2.1-3.81ZM196.05,35.9c1.05-3.62,1.99-6.83,2.2-7.52.39-1.24.49-1.57,2.18-1.57s1.79.33,2.18,1.57c.22.69,1.15,3.9,2.2,7.52h-8.77Z"/>
        <path class="cls-2" d="M236.2,43.94h-8.22c-2.47,0-4.48-2.01-4.48-4.48v-15.83c0-1.7-1.38-3.08-3.08-3.08s-3.08,1.38-3.08,3.08v15.83c0,5.86,4.77,10.63,10.63,10.63h8.22c1.7,0,3.08-1.38,3.08-3.08s-1.38-3.08-3.08-3.08Z"/>
        <path class="cls-2" d="M85.71,20.56c-1.7,0-3.08,1.38-3.08,3.08v23.38c0,1.7,1.38,3.08,3.08,3.08s3.08-1.38,3.08-3.08v-23.38c0-1.7-1.38-3.08-3.08-3.08Z"/>
        <path class="cls-2" d="M245.45,20.56c-1.7,0-3.08,1.38-3.08,3.08v23.38c0,1.7,1.38,3.08,3.08,3.08s3.08-1.38,3.08-3.08v-23.38c0-1.7-1.38-3.08-3.08-3.08Z"/>
        <path class="cls-2" d="M273.15,20.56h-18.48c-1.7,0-3.08,1.38-3.08,3.08s1.38,3.08,3.08,3.08h6.16v20.31c0,1.7,1.38,3.08,3.08,3.08s3.08-1.38,3.08-3.08v-20.31h6.16c1.7,0,3.08-1.38,3.08-3.08s-1.38-3.08-3.08-3.08Z"/>
        <path class="cls-2" d="M117.61,20.56c-2.95,0-5.63,1.21-7.56,3.16-1.93-1.95-4.6-3.16-7.56-3.16-5.86,0-10.63,4.77-10.63,10.63v15.83c0,1.7,1.38,3.08,3.08,3.08s3.08-1.38,3.08-3.08v-15.83c0-2.47,2.01-4.48,4.48-4.48s4.48,2.01,4.48,4.48v15.83c0,1.7,1.38,3.08,3.08,3.08s3.08-1.38,3.08-3.08v-15.83c0-2.47,2.01-4.48,4.48-4.48s4.48,2.01,4.48,4.48v15.83c0,1.7,1.38,3.08,3.08,3.08s3.08-1.38,3.08-3.08v-15.83c0-5.86-4.77-10.63-10.63-10.63Z"/>
        <path class="cls-2" d="M146.48,20.59h-12.21c-1.64.08-2.96,1.42-2.96,3.08v15.7c0,.21.02.42.03.64l.05,6.96c0,1.7,1.38,3.08,3.08,3.08.15,0,.3-.02.45-.05h11.56c5.07,0,9.19-4.12,9.19-9.19,0-2.31-.76-4.08-2.32-5.31,1.47-1.65,2.32-3.42,2.32-5.72,0-5.07-4.12-9.19-9.19-9.19ZM146.48,43.85l-9.01-.03v-6.02h.02v-.02s8.99,0,8.99,0c.41,0,.81.08,1.18.24,1.13.48,1.85,1.57,1.85,2.8,0,1.67-1.36,3.04-3.03,3.04ZM147.67,32.19c-.37.16-.77.24-1.18.24h-9.01v-5.67h9.01c1.67-.01,3.03,1.35,3.03,3.02,0,1.22-.73,1.93-1.85,2.41Z"/>
        <path class="cls-2" d="M178.5,40.26c3.07-1.87,5.13-5.23,5.13-9.08,0-5.86-4.77-10.63-10.63-10.63h-11.35s0,.02,0,.02c-1.61.1-2.89,1.42-2.89,3.06v23.38c0,1.7,1.38,3.08,3.08,3.08s3.08-1.38,3.08-3.08v-20.3s8.09,0,8.09,0c2.47,0,4.48,2.01,4.48,4.48s-2.01,4.48-4.48,4.48c-.06,0-.12.01-.19.02-.11,0-.23.02-.34.03-.09.02-.19.04-.28.07-.1.03-.2.05-.3.09-.09.04-.19.08-.28.13-.09.04-.17.09-.25.14-.09.06-.18.13-.27.2-.07.06-.14.11-.21.17-.08.08-.16.17-.23.25-.06.07-.12.13-.17.21-.06.09-.11.18-.16.27-.05.08-.1.16-.14.25-.04.09-.07.19-.1.28-.03.09-.07.19-.09.28-.02.09-.03.18-.04.28-.01.11-.03.22-.03.33,0,.09,0,.18.01.27,0,.11.01.22.03.33.02.1.04.19.07.28.03.1.05.2.09.29.04.1.08.19.13.28.04.09.09.17.14.25.06.09.13.18.2.27.04.05.07.11.11.15l7.44,8.29c.61.68,1.45,1.02,2.29,1.02.73,0,1.47-.26,2.06-.79,1.27-1.14,1.37-3.08.23-4.35l-4.23-4.71Z"/>
      </g>
    </g>
  </g>
</svg>